<svg xmlns="http://www.w3.org/2000/svg" viewBox="0 0 897 388" width="897" height="388" role="img" aria-label="Canvas API Integration" font-family="-apple-system, BlinkMacSystemFont, &quot;Segoe UI&quot;, &quot;Noto Sans&quot;, Helvetica, Arial, sans-serif">
<title>Canvas API Integration</title>
<desc>Container and function structure for canvas upload and orphan cleanup.</desc>
<defs><pattern id="dots" width="18" height="18" patternUnits="userSpaceOnUse"><circle cx="1.5" cy="1.5" r="1" fill="rgba(110,118,129,.22)"/></pattern><marker id="mk-added" viewBox="0 0 10 10" refX="8" refY="5" markerWidth="6.5" markerHeight="6.5" orient="auto-start-reverse"><path d="M0,0 L10,5 L0,10 z" fill="#3fb950"/></marker><marker id="mko-added" viewBox="0 0 10 10" refX="10" refY="5" markerWidth="6.5" markerHeight="6.5" orient="auto-start-reverse"><path d="M2,1 L10,5 L2,9" fill="none" stroke="#3fb950" stroke-width="1.6" stroke-linecap="round" stroke-linejoin="round"/></marker><marker id="mk-modified" viewBox="0 0 10 10" refX="8" refY="5" markerWidth="6.5" markerHeight="6.5" orient="auto-start-reverse"><path d="M0,0 L10,5 L0,10 z" fill="#d29922"/></marker><marker id="mko-modified" viewBox="0 0 10 10" refX="10" refY="5" markerWidth="6.5" markerHeight="6.5" orient="auto-start-reverse"><path d="M2,1 L10,5 L2,9" fill="none" stroke="#d29922" stroke-width="1.6" stroke-linecap="round" stroke-linejoin="round"/></marker><marker id="mk-removed" viewBox="0 0 10 10" refX="8" refY="5" markerWidth="6.5" markerHeight="6.5" orient="auto-start-reverse"><path d="M0,0 L10,5 L0,10 z" fill="#f85149"/></marker><marker id="mko-removed" viewBox="0 0 10 10" refX="10" refY="5" markerWidth="6.5" markerHeight="6.5" orient="auto-start-reverse"><path d="M2,1 L10,5 L2,9" fill="none" stroke="#f85149" stroke-width="1.6" stroke-linecap="round" stroke-linejoin="round"/></marker><marker id="mk-neutral" viewBox="0 0 10 10" refX="8" refY="5" markerWidth="6.5" markerHeight="6.5" orient="auto-start-reverse"><path d="M0,0 L10,5 L0,10 z" fill="#6e7681"/></marker><marker id="mko-neutral" viewBox="0 0 10 10" refX="10" refY="5" markerWidth="6.5" markerHeight="6.5" orient="auto-start-reverse"><path d="M2,1 L10,5 L2,9" fill="none" stroke="#6e7681" stroke-width="1.6" stroke-linecap="round" stroke-linejoin="round"/></marker></defs>
<rect x="0" y="0" width="897" height="388" rx="12" fill="#0d1117"/>
<rect x="0" y="0" width="897" height="388" rx="12" fill="url(#dots)"/>
<g transform="translate(36.75,0)"><g><rect class="lanebox" x="16" y="44" width="404" height="328" rx="12" fill="rgba(110,118,129,.07)"/>
<text class="lanelabel" x="32" y="68" font-size="10" font-weight="700" letter-spacing=".12em" fill="#9198a1">CI RUNNER · PR-LENS.SH</text>
<rect class="lanebox" x="440" y="44" width="404" height="328" rx="12" fill="rgba(110,118,129,.07)"/>
<text class="lanelabel" x="456" y="68" font-size="10" font-weight="700" letter-spacing=".12em" fill="#9198a1">CANVAS APP · REMOTE SERVICE</text></g>
<g><path class="edge edge-modified" d="M404,118 L413,118 C417.97,118 422,122.03 422,127 L422,301 C422,310.39 429.61,318 439,318 L456,318" marker-end="url(#mk-modified)" fill="none" stroke="#d29922" stroke-width="1.5"/>
<path class="edge edge-added" d="M218,144 L218,196" marker-end="url(#mk-added)" fill="none" stroke="#3fb950" stroke-width="1.5"/>
<path class="glow" stroke="#3fb950" d="M404,222 L421,222 C430.39,222 438,229.61 438,239 L438,325 C438,329.97 442.03,334 447,334 L456,334" fill="none" stroke-width="7" opacity="0.14"/>
<path class="edge edge-added hero" d="M404,222 L421,222 C430.39,222 438,229.61 438,239 L438,325 C438,329.97 442.03,334 447,334 L456,334" marker-end="url(#mk-added)" fill="none" stroke="#3fb950" stroke-width="2.25"/>
<path class="edge edge-neutral context" d="M32,118 L19,118 C11.82,118 6,123.82 6,131 L6,313 C6,320.18 11.82,326 19,326 L32,326" marker-end="url(#mk-neutral)" fill="none" stroke="#6e7681" stroke-width="1.5" opacity="0.82"/>
<path class="edge edge-added" d="M218,248 L218,300" marker-end="url(#mk-added)" fill="none" stroke="#3fb950" stroke-width="1.5"/></g>
<g><g class="cardsh" filter="drop-shadow(0 1px 2px rgba(0,0,0,.28))"><rect class="card card-modified" x="32" y="92" width="372" height="52" rx="10" fill="#1c2128" stroke-width="1" stroke="#d29922" stroke-opacity="0.5"/>
<rect class="chip" x="46" y="105" width="26" height="26" rx="7" fill="rgba(110,118,129,.18)"/><g><text class="glyph" x="59" y="122.5" text-anchor="middle" fill="#9198a1" font-size="14" font-style="italic" font-family="Georgia,serif">ƒ</text></g>
<text class="ntitle" x="82" y="123" font-size="13" font-weight="600" fill="#e6edf3">push_canvas()</text>
<g class="bdg bdg-modified"><rect x="330.38" y="84" width="66.62" height="16" rx="8" fill="rgba(187,128,9,.15)" stroke="rgba(210,153,34,.4)" stroke-width="1"/><text x="363.69" y="95" text-anchor="middle" font-size="8.5" font-weight="700" letter-spacing=".06em" fill="#d29922">CHANGED</text></g></g>
<g class="cardsh" filter="drop-shadow(0 1px 2px rgba(0,0,0,.28))"><rect class="card card-added" x="32" y="196" width="372" height="52" rx="10" fill="#1c2128" stroke-width="1" stroke="#3fb950" stroke-opacity="0.55"/>
<rect class="chip" x="46" y="209" width="26" height="26" rx="7" fill="rgba(110,118,129,.18)"/><g><text class="glyph" x="59" y="226.5" text-anchor="middle" fill="#9198a1" font-size="14" font-style="italic" font-family="Georgia,serif">ƒ</text></g>
<text class="ntitle" x="82" y="227" font-size="13" font-weight="600" fill="#e6edf3">drop_minted()</text>
<g class="bdg bdg-added"><rect x="356.45" y="188" width="40.55" height="16" rx="8" fill="rgba(46,160,67,.15)" stroke="rgba(63,185,80,.4)" stroke-width="1"/><text x="376.73" y="199" text-anchor="middle" font-size="8.5" font-weight="700" letter-spacing=".06em" fill="#3fb950">NEW</text></g></g>
<g class="cardsh" filter="drop-shadow(0 1px 2px rgba(0,0,0,.28))"><rect class="card card-modified" x="32" y="300" width="372" height="52" rx="10" fill="#1c2128" stroke-width="1" stroke="#d29922" stroke-opacity="0.5"/>
<rect class="chip" x="46" y="313" width="26" height="26" rx="7" fill="rgba(110,118,129,.18)"/><g><text class="glyph" x="59" y="330.5" text-anchor="middle" fill="#9198a1" font-size="14" font-style="italic" font-family="Georgia,serif">ƒ</text></g>
<text class="ntitle" x="82" y="331" font-size="13" font-weight="600" fill="#e6edf3">canvas_refusal()</text>
<g class="bdg bdg-modified"><rect x="330.38" y="292" width="66.62" height="16" rx="8" fill="rgba(187,128,9,.15)" stroke="rgba(210,153,34,.4)" stroke-width="1"/><text x="363.69" y="303" text-anchor="middle" font-size="8.5" font-weight="700" letter-spacing=".06em" fill="#d29922">CHANGED</text></g></g>
<g class="cardsh context" filter="drop-shadow(0 1px 2px rgba(0,0,0,.28))" opacity="0.82"><rect class="card" x="456" y="300" width="372" height="52" rx="10" fill="#1c2128" stroke-width="1" stroke="#3d444d"/>
<rect class="chip" x="470" y="313" width="26" height="26" rx="7" fill="rgba(110,118,129,.18)"/><g><rect class="glyph-stroke" x="476.5" y="319.5" width="13" height="13" rx="3" stroke="#9198a1" stroke-width="1.4" fill="none"/>
<circle class="glyph" fill="#9198a1" cx="483" cy="326" r="2"/></g>
<text class="ntitle" x="506" y="331" font-size="13" font-weight="600" fill="#e6edf3">Canvas REST API</text></g></g>
<g><g><rect class="lpill" x="370.35" y="206.5" width="103.31" height="15" rx="7.5" fill="#0d1117" stroke="#21262d" stroke-width="1"/><text class="ltext ltext-modified" x="422" y="217.5" text-anchor="middle" font-size="9.5" font-weight="600" fill="#d29922">PUT /api/canvas/:id</text></g>
<g><rect class="lpill" x="175.86" y="162.5" width="84.28" height="15" rx="7.5" fill="#0d1117" stroke="#21262d" stroke-width="1"/><text class="ltext ltext-added" x="218" y="173.5" text-anchor="middle" font-size="9.5" font-weight="600" fill="#3fb950">cleanup minted</text></g>
<g><rect class="lpill" x="376.83" y="274.5" width="122.34" height="15" rx="7.5" fill="#0d1117" stroke="#21262d" stroke-width="1"/><text class="ltext ltext-added" x="438" y="285.5" text-anchor="middle" font-size="9.5" font-weight="600" fill="#3fb950">DELETE /api/canvas/:id</text></g>
<g><rect class="lpill" x="-20.74" y="214.5" width="53.49" height="15" rx="7.5" fill="#0d1117" stroke="#21262d" stroke-width="1"/><text class="ltext" x="6" y="225.5" text-anchor="middle" font-size="9.5" font-weight="600" fill="#9198a1">log error</text></g>
<g><rect class="lpill" x="186.78" y="266.5" width="62.45" height="15" rx="7.5" fill="#0d1117" stroke="#21262d" stroke-width="1"/><text class="ltext ltext-added" x="218" y="277.5" text-anchor="middle" font-size="9.5" font-weight="600" fill="#3fb950">log refusal</text></g></g></g>
</svg>